<svg width="263" height="263" viewBox="0 0 263 263" fill="none" xmlns="http://www.w3.org/2000/svg">
<path d="M50.7748 205.55C95.4848 228.905 167.941 228.905 212.641 205.55C257.34 182.196 257.351 144.345 212.641 120.991C167.931 97.6362 95.4743 97.6415 50.7748 120.991C6.07529 144.34 6.08055 182.201 50.7748 205.55Z" fill="#FADEDF"/>
<path d="M37.5143 168.32H39.3974C40.2605 165.438 40.8262 162.475 41.0858 159.478C41.4961 153.929 38.8083 145.434 33.8849 142.588C28.9615 139.742 26.2947 143.261 27.9464 146.27C29.598 149.279 35.1683 157.837 35.242 165.201L37.5143 168.32Z" fill="#E84C4F"/>
<path d="M37.062 168.32H37.588C38.1019 164.686 38.1019 160.997 37.588 157.363C36.7358 150.162 34.3688 146.817 32.1702 144.492C32.122 144.441 32.0556 144.412 31.9856 144.41C31.9156 144.408 31.8476 144.433 31.7967 144.482C31.7458 144.53 31.7161 144.596 31.7141 144.666C31.7121 144.736 31.7381 144.804 31.7862 144.855C33.927 147.112 36.2309 150.373 37.0462 157.421C37.5673 161.035 37.5726 164.705 37.062 168.32V168.32Z" fill="white"/>
<path d="M37.6669 168.32C36.699 163.754 32.3017 158.326 28.1515 157.39C23.3386 156.338 20.9979 158.878 21.687 161.072C22.376 163.265 26.179 164.286 29.8715 166.006C31.1149 166.581 32.2514 167.364 33.2327 168.32H37.6669Z" fill="#E84C4F"/>
<path d="M35.9153 168.32H36.4781C34.4425 163.202 29.8137 159.551 26.0265 159.215C25.9922 159.211 25.9575 159.214 25.9246 159.224C25.8916 159.235 25.8609 159.251 25.8344 159.273C25.808 159.295 25.7862 159.322 25.7704 159.353C25.7546 159.384 25.7451 159.417 25.7424 159.452C25.7381 159.486 25.7408 159.521 25.7505 159.554C25.7602 159.587 25.7767 159.618 25.7989 159.645C25.8211 159.672 25.8486 159.694 25.8796 159.709C25.9106 159.725 25.9445 159.734 25.9791 159.736C29.5559 160.056 33.927 163.486 35.9153 168.32Z" fill="white"/>
<path d="M207.465 120.196L211.405 122.263L211.736 119.796C209.785 114.294 211.389 108.056 213.498 105.458C215.607 102.859 215.202 100.95 214.44 100.098C213.677 99.2455 210.784 98.5986 207.923 101.944C205.061 105.289 204.404 109.35 204.882 113.448C205.187 116.009 206.534 118.639 207.465 120.196Z" fill="#E84C4F"/>
<path opacity="0.2" d="M207.465 120.196L211.405 122.263L211.736 119.796C209.785 114.294 211.389 108.056 213.498 105.458C215.607 102.859 215.202 100.95 214.44 100.098C213.677 99.2455 210.784 98.5986 207.923 101.944C205.061 105.289 204.404 109.35 204.882 113.448C205.187 116.009 206.534 118.639 207.465 120.196Z" fill="black"/>
<path d="M209.09 121.048L209.869 121.459C209.861 121.444 209.852 121.43 209.842 121.417C208.727 120.091 207.286 113.6 207.891 109.797C208.638 105.1 211.047 102.033 213.109 100.734C213.134 100.719 213.156 100.698 213.173 100.674C213.19 100.65 213.203 100.623 213.209 100.594C213.215 100.565 213.216 100.535 213.21 100.506C213.205 100.476 213.194 100.449 213.177 100.424C213.144 100.374 213.092 100.338 213.033 100.326C212.974 100.313 212.913 100.324 212.862 100.356C210.758 101.707 208.212 104.879 207.439 109.729C206.881 113.269 207.996 118.876 209.09 121.048Z" fill="white"/>
<path d="M211.484 110.807C212.636 113.632 212.63 115.015 210.752 115.304C209.059 115.557 207.002 117.614 208.911 120.954L220.084 126.813C220.112 126.189 220.266 125.577 220.537 125.013C220.809 124.45 221.191 123.948 221.662 123.536C223.497 121.701 225.191 120.317 224.928 118.276C224.665 116.235 222.893 114.268 222.598 112.49C222.303 110.712 223.208 109.697 225.139 107.704C227.069 105.71 228.821 102.617 226.243 101.208C223.666 99.7979 220.715 102.212 219.484 103.838C218.253 105.463 217.128 106.178 214.703 106.042C212.278 105.905 210.332 107.983 211.484 110.807Z" fill="#E84C4F"/>
<path d="M214.645 123.962C214.592 115.294 220.804 105.142 224.26 103.091C224.311 103.058 224.348 103.007 224.362 102.948C224.377 102.89 224.369 102.828 224.339 102.775C224.307 102.724 224.258 102.688 224.2 102.673C224.142 102.658 224.081 102.667 224.029 102.696C220.526 104.8 214.261 114.957 214.193 123.736L214.645 123.962Z" fill="white"/>
<path d="M216.307 114.952C216.259 114.963 216.21 114.957 216.166 114.936C216.122 114.915 216.086 114.88 216.065 114.836C215.061 112.964 214.217 111.011 213.54 108.998C213.531 108.969 213.528 108.94 213.53 108.91C213.533 108.88 213.541 108.852 213.555 108.825C213.569 108.799 213.587 108.775 213.61 108.756C213.633 108.737 213.659 108.723 213.687 108.714C213.716 108.705 213.746 108.701 213.775 108.704C213.805 108.706 213.834 108.715 213.86 108.729C213.886 108.742 213.91 108.761 213.929 108.784C213.948 108.806 213.963 108.833 213.972 108.861C214.642 110.846 215.476 112.773 216.465 114.621C216.493 114.674 216.499 114.737 216.481 114.795C216.463 114.853 216.423 114.902 216.37 114.931L216.307 114.952Z" fill="white"/>
<path d="M214.813 120.264C214.77 120.272 214.726 120.268 214.685 120.252C214.644 120.237 214.608 120.21 214.582 120.175C214.547 120.125 214.534 120.063 214.545 120.003C214.555 119.943 214.59 119.889 214.64 119.854C216.905 118.268 219.653 117.524 222.409 117.75C222.469 117.758 222.523 117.789 222.56 117.837C222.597 117.885 222.614 117.945 222.606 118.005C222.598 118.065 222.567 118.12 222.519 118.157C222.471 118.194 222.411 118.21 222.351 118.203C219.712 118.002 217.084 118.709 214.903 120.207C214.877 120.232 214.847 120.251 214.813 120.264V120.264Z" fill="white"/>
<path d="M33.5641 166.084L90.9717 199.222C91.6775 199.581 92.4578 199.767 93.2493 199.767C94.0407 199.767 94.8211 199.581 95.5269 199.222L221.309 126.634C222.566 125.909 222.566 124.73 221.309 124.004L163.902 90.8665C163.197 90.5059 162.416 90.3179 161.624 90.3179C160.832 90.3179 160.052 90.5059 159.346 90.8665L33.5641 163.454C32.3069 164.18 32.3069 165.359 33.5641 166.084Z" fill="#455A64"/>
<path d="M64.5929 181.47C65.5716 181.964 66.6526 182.221 67.7489 182.221C68.8451 182.221 69.9261 181.964 70.9049 181.47C72.6564 180.46 72.6564 178.84 70.9049 177.814C69.9268 177.318 68.8456 177.059 67.7489 177.059C66.6521 177.059 65.5709 177.318 64.5929 177.814C62.8413 178.84 62.8413 180.47 64.5929 181.47Z" fill="#263238"/>
<path d="M92.05 199.222L34.6424 166.084C33.5167 165.432 33.401 164.422 34.29 163.696C33.7285 164.14 33.2669 164.698 32.9352 165.332C32.6035 165.967 32.4091 166.664 32.3648 167.378V169.519C32.408 170.309 32.6367 171.078 33.0324 171.764C33.4281 172.449 33.9796 173.032 34.6424 173.464L92.05 206.602C92.752 206.969 93.536 207.15 94.3276 207.128V199.769C93.5342 199.785 92.75 199.596 92.05 199.222V199.222Z" fill="#37474F"/>
<path d="M221.304 134.009C221.968 133.578 222.521 132.996 222.918 132.31C223.315 131.624 223.544 130.855 223.587 130.064V127.923C223.544 127.208 223.35 126.51 223.017 125.875C222.684 125.24 222.221 124.683 221.656 124.241C222.551 124.967 222.435 125.977 221.309 126.624L95.5269 199.223C94.8245 199.588 94.0408 199.769 93.2493 199.749V207.149C94.0408 207.17 94.8245 206.989 95.5269 206.623L221.304 134.009Z" fill="#263238"/>
<path d="M100.429 192.358L45.4832 160.619C44.7258 160.183 44.7258 159.473 45.4832 159.041L151.693 97.7045C152.117 97.4892 152.585 97.377 153.061 97.377C153.536 97.377 154.005 97.4892 154.428 97.7045L209.395 129.438C210.148 129.875 210.148 130.579 209.395 131.016L103.143 192.358C102.722 192.57 102.258 192.68 101.786 192.68C101.315 192.68 100.85 192.57 100.429 192.358V192.358Z" fill="white"/>
<path d="M78.2899 174.637L84.7018 170.934L82.5662 169.703L76.1543 173.401L78.2899 174.637Z" fill="#E84C4F"/>
<path d="M155.212 130.227L161.624 126.524L159.483 125.293L153.077 128.996L155.212 130.227Z" fill="#E84C4F"/>
<path d="M168.031 122.826L174.443 119.123L172.307 117.892L165.895 121.59L168.031 122.826Z" fill="#E84C4F"/>
<path d="M188.608 109.86C188.857 109.985 189.131 110.05 189.41 110.05C189.688 110.05 189.963 109.985 190.212 109.86C190.309 109.827 190.392 109.765 190.452 109.682C190.511 109.599 190.543 109.5 190.543 109.398C190.543 109.295 190.511 109.196 190.452 109.113C190.392 109.03 190.309 108.968 190.212 108.935C189.964 108.808 189.689 108.741 189.41 108.741C189.131 108.741 188.856 108.808 188.608 108.935C188.511 108.968 188.427 109.03 188.368 109.113C188.309 109.196 188.277 109.295 188.277 109.398C188.277 109.5 188.309 109.599 188.368 109.682C188.427 109.765 188.511 109.827 188.608 109.86V109.86Z" fill="#263238"/>
<path d="M191.169 117.124C191.666 117.376 192.215 117.507 192.771 117.507C193.328 117.507 193.876 117.376 194.373 117.124C195.256 116.598 195.256 115.783 194.373 115.273C193.876 115.021 193.328 114.89 192.771 114.89C192.215 114.89 191.666 115.021 191.169 115.273C190.286 115.783 190.286 116.614 191.169 117.124Z" fill="#263238"/>
<path d="M188.908 113.905C189.497 113.563 189.465 112.995 188.839 112.632L178.319 106.547C177.981 106.365 177.604 106.267 177.22 106.259C176.836 106.252 176.455 106.336 176.11 106.504C175.521 106.846 175.553 107.414 176.178 107.777L186.73 113.863C187.065 114.039 187.436 114.135 187.814 114.142C188.192 114.149 188.566 114.068 188.908 113.905V113.905Z" fill="#263238"/>
<path d="M87.316 170.314C92.6338 173.375 105.1 171.15 115.162 165.338L142.804 149.384C152.866 143.572 156.706 136.387 151.377 133.331C146.049 130.274 133.572 132.51 123.5 138.317L95.9108 154.25C85.8537 160.057 82.0034 167.268 87.316 170.314Z" fill="#FADEDF"/>
<path d="M167.794 36.5675H167.82L172.37 33.9375H172.407C175.274 32.4858 179.103 32.8855 183.227 35.5681C191.517 40.9018 197.844 53.2102 197.366 63.0516C197.124 67.9592 195.262 71.3256 192.384 72.8089H192.358L187.803 75.4389H187.771C184.905 76.896 181.07 76.4909 176.941 73.8136C168.657 68.4747 162.329 56.1716 162.807 46.3301C163.06 41.4173 164.948 38.0509 167.794 36.5675Z" fill="#37474F"/>
<path d="M188.035 75.3023L192.374 72.7775H192.406C195.257 71.289 197.14 67.9226 197.382 63.0202C197.592 58.6334 196.451 53.7574 194.389 49.2285L189.833 51.8585C191.901 56.3874 193.042 61.2634 192.826 65.6555C192.6 70.4421 190.791 73.7717 188.035 75.3023Z" fill="#263238"/>
<path d="M176.962 73.8083C168.678 68.4694 162.35 56.1662 162.829 46.3248C163.307 36.4833 170.424 32.8276 178.693 38.1612C186.961 43.4949 193.31 55.8033 192.832 65.6447C192.353 75.4862 185.247 79.1419 176.962 73.8083Z" fill="#455A64"/>
<path d="M183.905 73.114C188.792 73.3507 189.586 67.854 189.691 65.487C190.112 56.808 184.295 45.499 176.988 40.7913C175.432 39.7008 173.62 39.0305 171.728 38.8451C166.847 38.6084 166.053 44.1051 165.942 46.4721C165.522 55.1511 171.334 66.4601 178.645 71.1941C180.202 72.2845 182.014 72.9549 183.905 73.1403V73.114Z" fill="#FAFAFA"/>
<path d="M176.873 57.6128C176.93 57.6129 176.987 57.6022 177.041 57.5812C177.151 57.5455 177.246 57.4747 177.312 57.3796C177.377 57.2846 177.41 57.1706 177.404 57.0552V44.5206C177.404 44.3811 177.349 44.2473 177.25 44.1487C177.151 44.05 177.017 43.9946 176.878 43.9946C176.738 43.9946 176.605 44.05 176.506 44.1487C176.407 44.2473 176.352 44.3811 176.352 44.5206V55.5298L170.498 48.008C170.411 47.8964 170.284 47.8237 170.144 47.806C170.004 47.7882 169.862 47.8268 169.751 47.9133C169.639 47.9998 169.566 48.1271 169.549 48.2672C169.531 48.4073 169.57 48.5486 169.656 48.6603L176.468 57.4076C176.516 57.4699 176.577 57.5207 176.647 57.5562C176.717 57.5917 176.794 57.611 176.873 57.6128V57.6128Z" fill="#37474F"/>
<path d="M179.892 66.8863C179.916 66.8911 179.941 66.8911 179.966 66.8863C180.021 66.8692 180.068 66.8312 180.097 66.7802C180.125 66.7292 180.133 66.6693 180.118 66.6128L177.167 56.6766C177.151 56.6201 177.112 56.5726 177.06 56.5445C177.008 56.5164 176.948 56.51 176.891 56.5267C176.835 56.5435 176.787 56.582 176.759 56.6338C176.731 56.6855 176.724 56.7464 176.741 56.8029L179.687 66.739C179.702 66.7816 179.73 66.8185 179.766 66.8449C179.803 66.8712 179.847 66.8857 179.892 66.8863V66.8863Z" fill="#E84C4F"/>
<path d="M177.041 54.5672C176.063 53.9413 175.226 54.3726 175.174 55.5298C175.177 56.161 175.329 56.7825 175.618 57.3437C175.907 57.9049 176.324 58.39 176.836 58.7594C177.809 59.3906 178.645 58.9593 178.703 57.8021C178.699 57.1704 178.546 56.5486 178.257 55.9867C177.969 55.4249 177.552 54.9386 177.041 54.5672V54.5672Z" fill="#E84C4F"/>
<path d="M91.1137 167.236L97.5204 163.533L95.3848 162.302L88.9781 166L91.1137 167.236Z" fill="#E84C4F"/>
<path d="M103.932 159.836L110.344 156.133L108.203 154.902L101.797 158.6L103.932 159.836Z" fill="#E84C4F"/>
<path d="M101.297 158.326C101.297 161.419 99.1299 165.164 96.4526 166.742C95.0271 167.568 93.7437 167.594 92.86 166.973C92.5037 166.694 92.2111 166.341 92.0016 165.939C91.7921 165.537 91.6706 165.096 91.645 164.643C91.8249 164.559 92.0004 164.466 92.171 164.365C94.8483 162.823 97.0154 159.062 97.0154 155.949C97.0179 155.718 97.0039 155.488 96.9733 155.259C97.3746 155.047 97.8156 154.921 98.2684 154.888C98.7212 154.855 99.1758 154.917 99.6033 155.07C100.655 155.512 101.297 156.653 101.297 158.326Z" fill="#263238"/>
<path d="M101.734 151.972L101.644 151.919C100.298 151.204 98.4882 151.335 96.4526 152.503C92.3235 154.886 88.9729 160.683 88.9729 165.453C88.9729 167.852 89.8198 169.53 91.1874 170.308C92.555 171.087 94.4012 170.955 96.4474 169.782C100.576 167.4 103.922 161.598 103.922 156.827C103.927 154.428 103.096 152.75 101.734 151.972ZM96.4737 166.732C95.0429 167.557 93.7595 167.584 92.8758 166.958C92.0973 166.432 91.6239 165.38 91.6239 163.933C91.6239 160.846 93.7963 157.095 96.4737 155.517C97.694 154.812 98.8038 154.691 99.6297 155.054C100.65 155.491 101.292 156.632 101.292 158.316C101.297 161.429 99.13 165.19 96.4526 166.742L96.4737 166.732Z" fill="#37474F"/>
<path d="M99.8769 155.196L99.8191 155.165C98.9459 154.696 97.7624 154.786 96.4526 155.538C93.7753 157.085 91.6029 160.845 91.6029 163.954C91.6029 165.532 92.1289 166.584 93.0389 167.11C93.9489 167.636 95.1429 167.531 96.4526 166.763C99.13 165.217 101.297 161.456 101.297 158.347C101.297 156.79 100.755 155.696 99.8769 155.196ZM96.4526 165.637C95.306 166.3 94.275 166.321 93.5596 165.816C92.939 165.38 92.555 164.543 92.555 163.386C92.6287 162.034 93.02 160.718 93.6972 159.546C94.3744 158.373 95.3184 157.377 96.4526 156.637C96.8211 156.38 97.2446 156.212 97.6893 156.148C98.134 156.083 98.5877 156.123 99.0143 156.264C99.8348 156.616 100.35 157.532 100.35 158.894C100.277 160.245 99.8859 161.56 99.2086 162.732C98.5313 163.904 97.5871 164.899 96.4526 165.637V165.637Z" fill="#E84C4F"/>
<path d="M116.751 152.429L123.163 148.732L121.027 147.496L114.615 151.199L116.751 152.429Z" fill="#E84C4F"/>
<path d="M129.575 145.029L135.981 141.331L133.846 140.095L127.434 143.798L129.575 145.029Z" fill="#E84C4F"/>
<path d="M142.393 137.628L148.8 133.93L146.664 132.694L140.253 136.397L142.393 137.628Z" fill="#E84C4F"/>
<path d="M110.492 103.212C110.559 103.122 110.652 103.056 110.759 103.024C110.866 102.991 110.981 102.994 111.086 103.031C111.192 103.067 111.283 103.137 111.346 103.229C111.409 103.321 111.442 103.431 111.438 103.543C111.479 103.842 111.449 104.147 111.349 104.433C111.25 104.718 111.084 104.976 110.865 105.184C110.444 105.547 110.018 105.4 109.918 104.853C109.878 104.553 109.908 104.249 110.008 103.963C110.108 103.678 110.273 103.421 110.492 103.212V103.212Z" fill="#E84C4F"/>
<path d="M115.425 105.537L111.138 103.059L110.197 105.326L114.5 107.809L115.425 105.537Z" fill="#E84C4F"/>
<path d="M114.768 105.679C115.189 105.321 115.61 105.468 115.715 106.015C115.753 106.314 115.721 106.618 115.621 106.902C115.52 107.186 115.354 107.443 115.136 107.651C114.715 108.014 114.289 107.867 114.189 107.32C114.151 107.02 114.183 106.715 114.284 106.43C114.384 106.146 114.55 105.888 114.768 105.679V105.679Z" fill="#E84C4F"/>
<path d="M147.717 126.424C147.717 126.529 147.717 126.624 147.717 126.729C147.717 126.94 147.717 127.155 147.717 127.371C146.864 127.008 145.755 127.129 144.534 127.834C141.857 129.38 139.685 133.141 139.685 136.25C139.685 137.691 140.158 138.732 140.936 139.274C140.718 139.43 140.491 139.574 140.258 139.706L140.011 139.832L139.269 142.625L134.977 140.232C133.62 139.448 132.783 137.775 132.783 135.387C132.783 130.616 136.129 124.82 140.258 122.432C142.299 121.254 144.145 121.133 145.518 121.906L149.726 124.262L149.815 124.315L147.717 126.424Z" fill="#455A64"/>
<path d="M149.81 124.267L149.721 124.215C148.374 123.499 146.565 123.631 144.529 124.799C140.4 127.181 137.049 132.978 137.049 137.749C137.049 140.147 137.896 141.825 139.264 142.604C140.631 143.382 142.478 143.251 144.524 142.078C148.653 139.695 151.998 133.893 151.998 129.122C152.014 126.724 151.167 125.046 149.81 124.267ZM144.55 139.027C143.119 139.853 141.836 139.879 140.952 139.253C140.174 138.727 139.7 137.675 139.7 136.229C139.7 133.141 141.873 129.391 144.55 127.813C145.77 127.108 146.88 126.987 147.732 127.35C148.753 127.786 149.394 128.928 149.394 130.611C149.384 133.725 147.206 137.486 144.529 139.027H144.55Z" fill="#37474F"/>
<path d="M149.384 130.632C149.384 133.725 147.217 137.47 144.54 139.048C143.114 139.874 141.831 139.9 140.947 139.28C140.591 139 140.298 138.647 140.089 138.245C139.879 137.844 139.758 137.402 139.732 136.949C139.912 136.865 140.087 136.772 140.258 136.671C142.935 135.129 145.102 131.369 145.102 128.255C145.105 128.024 145.091 127.794 145.06 127.566C145.462 127.353 145.903 127.227 146.355 127.194C146.808 127.162 147.263 127.224 147.69 127.376C148.732 127.818 149.384 128.949 149.384 130.632Z" fill="#263238"/>
<path d="M147.953 127.492L147.895 127.455C147.022 126.992 145.833 127.076 144.529 127.834C141.852 129.38 139.679 133.136 139.679 136.25C139.679 137.828 140.205 138.88 141.115 139.406C142.025 139.932 143.219 139.821 144.529 139.053C147.206 137.512 149.373 133.751 149.373 130.637C149.384 129.086 148.858 127.997 147.953 127.492ZM144.529 137.928C143.377 138.596 142.346 138.617 141.636 138.112C141.01 137.675 140.631 136.839 140.631 135.682C140.705 134.33 141.096 133.014 141.773 131.841C142.451 130.669 143.395 129.673 144.529 128.933C145.507 128.365 146.401 128.265 147.085 128.56C147.906 128.912 148.421 129.827 148.421 131.19C148.348 132.54 147.958 133.854 147.281 135.024C146.605 136.195 145.662 137.19 144.529 137.928Z" fill="#E84C4F"/>
<path d="M140.253 132.205L152.351 125.22C153.755 124.404 149.195 119.644 145.802 119.323C143.934 119.097 142.04 119.277 140.247 119.849C140.247 119.849 142.83 123.158 142.388 125.035C141.946 126.913 140.253 132.205 140.253 132.205Z" fill="#E84C4F"/>
<path d="M123.163 112.464C123.163 112.464 140.7 121.311 141.457 121.843C142.215 122.374 141.457 128.544 140.253 132.205C139.048 135.866 137.197 141.494 136.455 143.072C135.713 144.65 134.745 145.239 132.968 146.265L120.344 153.56L103.254 155.643L96.4684 151.961L98.2357 140.858C98.2357 140.858 116.399 131.195 118.887 129.759C121.374 128.323 128.733 121.585 123.163 112.464Z" fill="#E84C4F"/>
<path opacity="0.2" d="M123.163 112.464C123.163 112.464 140.7 121.311 141.457 121.843C142.215 122.374 141.457 128.544 140.253 132.205C139.048 135.866 137.197 141.494 136.455 143.072C135.713 144.65 134.745 145.239 132.968 146.265L120.344 153.56L103.254 155.643L96.4684 151.961L98.2357 140.858C98.2357 140.858 116.399 131.195 118.887 129.759C121.374 128.323 128.733 121.585 123.163 112.464Z" fill="black"/>
<path d="M141.794 130.096C143.372 125.856 144.55 122.342 144.35 119.97C144.108 117.156 143.056 114.857 138.417 113.7C133.778 112.543 127.292 112.564 127.292 112.564L125.319 113.705C125.319 113.705 138.659 121.438 140.174 122.279C141.099 122.805 142.088 125.125 140.274 132.21L140.584 132.389C140.737 132.484 141.289 131.458 141.794 130.096Z" fill="#E84C4F"/>
<path opacity="0.3" d="M141.794 130.096C143.372 125.856 144.55 122.342 144.35 119.97C144.108 117.156 143.056 114.857 138.417 113.7C133.778 112.543 127.292 112.564 127.292 112.564L125.319 113.705C125.319 113.705 138.659 121.438 140.174 122.279C141.099 122.805 142.088 125.125 140.274 132.21L140.584 132.389C140.737 132.484 141.289 131.458 141.794 130.096Z" fill="white"/>
<path d="M131.689 117.398L133.846 116.167C133.846 116.167 133.72 108.693 130.574 106.878C127.429 105.063 116.751 106.299 116.751 106.299L114.615 107.53L131.689 117.398Z" fill="#E84C4F"/>
<path d="M124.694 108.587C123.668 109.182 123.668 110.139 124.694 110.728C125.269 111.021 125.905 111.174 126.55 111.174C127.196 111.174 127.832 111.021 128.407 110.728C129.428 110.139 129.428 109.177 128.407 108.587C127.831 108.297 127.195 108.146 126.55 108.146C125.905 108.146 125.269 108.297 124.694 108.587V108.587Z" fill="#F0F0F0"/>
<path d="M127.976 112.159C127.255 112.58 127.255 113.258 127.976 113.674C128.383 113.882 128.834 113.991 129.291 113.991C129.748 113.991 130.199 113.882 130.606 113.674C131.332 113.258 131.332 112.58 130.606 112.159C130.198 111.953 129.748 111.846 129.291 111.846C128.834 111.846 128.384 111.953 127.976 112.159V112.159Z" fill="#F0F0F0"/>
<path d="M119.712 107.635C118.986 108.051 118.986 108.729 119.712 109.15C120.12 109.356 120.571 109.463 121.027 109.463C121.484 109.463 121.935 109.356 122.342 109.15C123.068 108.729 123.068 108.051 122.342 107.635C121.935 107.427 121.485 107.319 121.027 107.319C120.57 107.319 120.119 107.427 119.712 107.635V107.635Z" fill="#F0F0F0"/>
<path d="M132.026 115.231C132.447 114.868 132.868 115.015 132.973 115.562C133.012 115.862 132.979 116.167 132.879 116.452C132.778 116.737 132.612 116.994 132.394 117.203C132.327 117.293 132.233 117.359 132.126 117.391C132.019 117.424 131.905 117.422 131.799 117.385C131.694 117.348 131.603 117.278 131.539 117.186C131.476 117.094 131.444 116.984 131.447 116.872C131.407 116.572 131.438 116.267 131.539 115.982C131.639 115.696 131.806 115.439 132.026 115.231Z" fill="#E84C4F"/>
<path d="M136.934 117.556L132.641 115.078L131.705 117.345L136.003 119.823L136.934 117.556Z" fill="#E84C4F"/>
<path d="M136.271 117.698C136.338 117.608 136.432 117.542 136.539 117.51C136.645 117.477 136.76 117.48 136.866 117.517C136.971 117.554 137.062 117.623 137.125 117.715C137.189 117.807 137.221 117.917 137.218 118.029C137.258 118.329 137.226 118.634 137.125 118.919C137.025 119.205 136.858 119.462 136.639 119.67C136.218 120.033 135.797 119.881 135.692 119.339C135.653 119.039 135.685 118.734 135.785 118.449C135.886 118.164 136.052 117.907 136.271 117.698V117.698Z" fill="#E84C4F"/>
<path d="M136.271 117.698C136.338 117.608 136.432 117.542 136.539 117.51C136.645 117.477 136.76 117.48 136.866 117.517C136.971 117.554 137.062 117.623 137.125 117.715C137.189 117.807 137.221 117.917 137.218 118.029C137.258 118.329 137.226 118.634 137.125 118.919C137.025 119.205 136.858 119.462 136.639 119.67C136.218 120.033 135.797 119.881 135.692 119.339C135.653 119.039 135.685 118.734 135.785 118.449C135.886 118.164 136.052 117.907 136.271 117.698V117.698Z" fill="black"/>
<path d="M99.6402 154.118C99.6402 154.223 99.6402 154.318 99.6402 154.423C99.6402 154.633 99.6402 154.849 99.6402 155.065C98.7881 154.702 97.6782 154.823 96.4842 155.528C93.8068 157.074 91.6345 160.835 91.6345 163.944C91.6345 165.385 92.1079 166.426 92.8863 166.968C92.6678 167.124 92.4413 167.268 92.2078 167.399L91.9606 167.526L91.2189 170.319L86.9268 167.925C85.5697 167.142 84.7333 165.469 84.7333 163.081C84.7333 158.31 88.0787 152.514 92.2078 150.126C94.2487 148.947 96.0949 148.826 97.4678 149.6L101.676 151.956L101.765 152.009L99.6402 154.118Z" fill="#455A64"/>
<path d="M86.8373 145.77L83.634 156.874L90.0459 160.577L93.365 149.542L86.8373 145.77Z" fill="#E84C4F"/>
<path opacity="0.2" d="M86.8373 145.77L83.634 156.874L90.0459 160.577L93.365 149.542L86.8373 145.77Z" fill="black"/>
<path d="M86.8373 145.77C86.8373 145.77 90.472 148.858 93.365 149.542C97.1627 150.462 103.201 150.562 105.342 150.71C108.614 150.936 111.086 150.931 112.243 150.515C113.742 149.989 117.771 147.648 118.887 147.007C121.022 145.776 121.932 140.931 116.046 139.606C112.066 138.781 108.012 138.367 103.948 138.37L86.8373 145.77Z" fill="#E84C4F"/>
<path d="M123.084 144.35C122.901 144.808 122.777 145.287 122.716 145.776C122.546 146.284 122.507 146.826 122.6 147.354C123.001 148.017 123.632 148.509 124.373 148.737C124.906 148.856 125.459 148.863 125.995 148.759C126.532 148.655 127.041 148.442 127.492 148.132C128.581 147.48 129.401 146.691 130.948 146.249C132.053 146.015 133.094 145.543 133.998 144.866C134.856 144.177 136.003 142.272 134.361 141.831C132.72 141.389 129.154 142.946 125.903 143.088L123.084 144.35Z" fill="#37474F"/>
<path d="M123.084 142.32V144.75C123.184 145.023 123.357 145.263 123.584 145.444C123.811 145.625 124.084 145.74 124.373 145.776C124.637 145.814 124.907 145.785 125.156 145.691C125.55 145.541 125.892 145.279 126.139 144.937C126.385 144.594 126.527 144.188 126.545 143.766L126.64 142.32H123.084Z" fill="#FFA8A7"/>
<path d="M127.713 127.292C127.713 130.316 126.861 143.393 126.861 143.393C126.861 143.393 125.625 144.971 122.937 143.393L122.032 128.781L127.713 127.292Z" fill="#37474F"/>
<path d="M113.616 140.179L122.032 135.329C122.377 135.148 122.666 134.877 122.867 134.543C123.069 134.21 123.175 133.828 123.175 133.438C123.175 133.049 123.069 132.667 122.867 132.334C122.666 132 122.377 131.728 122.032 131.547L115.762 127.929C115.409 127.75 115.019 127.656 114.623 127.656C114.228 127.656 113.837 127.75 113.484 127.929L105.068 132.778C104.725 132.96 104.438 133.233 104.238 133.566C104.037 133.899 103.931 134.28 103.931 134.669C103.931 135.058 104.037 135.439 104.238 135.773C104.438 136.106 104.725 136.378 105.068 136.56L111.338 140.179C111.691 140.358 112.082 140.451 112.477 140.451C112.873 140.451 113.263 140.358 113.616 140.179Z" fill="#E84C4F"/>
<path d="M113.616 140.179L122.032 135.329C122.377 135.148 122.666 134.877 122.867 134.543C123.069 134.21 123.175 133.828 123.175 133.438C123.175 133.049 123.069 132.667 122.867 132.334C122.666 132 122.377 131.728 122.032 131.547L115.762 127.929C115.409 127.75 115.019 127.656 114.623 127.656C114.228 127.656 113.837 127.75 113.484 127.929L105.068 132.778C104.725 132.96 104.438 133.233 104.238 133.566C104.037 133.899 103.931 134.28 103.931 134.669C103.931 135.058 104.037 135.439 104.238 135.773C104.438 136.106 104.725 136.378 105.068 136.56L111.338 140.179C111.691 140.358 112.082 140.451 112.477 140.451C112.873 140.451 113.263 140.358 113.616 140.179Z" fill="white"/>
<path d="M105.069 134.093L111.338 137.712C111.691 137.891 112.082 137.984 112.477 137.984C112.873 137.984 113.263 137.891 113.616 137.712L122.032 132.862C122.169 132.816 122.289 132.727 122.373 132.609C122.458 132.491 122.503 132.35 122.503 132.205C122.503 132.06 122.458 131.918 122.373 131.8C122.289 131.683 122.169 131.594 122.032 131.547L115.762 127.929C115.409 127.75 115.019 127.656 114.623 127.656C114.228 127.656 113.837 127.75 113.485 127.929L105.069 132.778C104.931 132.825 104.812 132.913 104.727 133.031C104.643 133.149 104.597 133.291 104.597 133.436C104.597 133.581 104.643 133.722 104.727 133.84C104.812 133.958 104.931 134.047 105.069 134.093Z" fill="#E84C4F"/>
<path d="M110.197 101.902L109.129 106.305L104.542 106.584L105.531 100.482L110.197 101.902Z" fill="#FFA8A7"/>
<path d="M114.668 98.5881C114.668 98.5881 115.194 100.45 114.978 100.555C114.647 100.606 114.31 100.606 113.979 100.555L114.668 98.5881Z" fill="#F28F8F"/>
<path d="M113.79 92.6443C114.526 93.5122 115.199 94.9377 114.679 98.4303C114.11 102.249 113.406 102.691 112.838 103.059C112.096 103.543 109.129 103.285 108.293 102.675C107.288 101.944 105.737 99.6243 105.368 97.3362C104.937 94.6484 105.836 91.6659 107.814 91.1557C110.597 90.4351 113.164 91.9079 113.79 92.6443Z" fill="#FFA8A7"/>
<path d="M105.068 101.718C105.779 102.454 107.236 102.654 108.151 102.822C109.066 102.991 111.88 103.175 112.711 101.171C113.542 99.1668 112.974 97.7255 113.995 97.2416C115.015 96.7577 116.036 96.4421 116.304 96.1896C116.572 95.9371 116.577 92.6391 113.837 90.9296C111.096 89.2201 106.899 88.8256 104.137 92.2919C102.044 94.9693 102.901 99.4561 105.068 101.718Z" fill="#455A64"/>
<path d="M107.83 102.849C108.54 102.912 110.786 102.559 111.465 101.634C112.143 100.708 112.417 99.0511 112.517 98.1832C112.526 97.8414 112.651 97.5129 112.872 97.2518C113.093 96.9908 113.396 96.8128 113.732 96.7472C114.41 96.5315 115.909 95.7951 115.909 95.7951V95.3848C116.393 95.3545 116.878 95.3545 117.361 95.3848C117.677 95.4427 117.503 95.9108 116.704 96.3159C115.904 96.7209 113.711 97.5046 113.374 97.7729C113.037 98.0411 112.88 99.172 112.611 100.377C112.343 101.581 111.512 103.38 107.83 102.849Z" fill="#37474F"/>
<path d="M114.142 107.83L116.772 106.32C117.024 105.558 116.619 105.174 115.904 105.221C115.189 105.268 115.41 104.574 114.973 104.379C114.4 104.116 114.074 104.264 113.816 104.143C113.558 104.022 113.448 103.717 113.111 103.68C111.607 103.538 110.581 105.684 110.581 105.684L114.142 107.83Z" fill="#F28F8F"/>
<path d="M96.2896 127.145C96.2896 127.145 107.909 121.385 109.934 120.454C111.959 119.523 115.136 118.171 116.825 118.171C117.484 118.226 118.102 118.516 118.565 118.99C119.028 119.463 119.305 120.088 119.344 120.749C119.366 121.763 119.308 122.778 119.171 123.784C115.978 124.831 112.716 125.652 109.408 126.24C104.574 127.082 96.2896 127.145 96.2896 127.145Z" fill="#37474F"/>
<path d="M97.552 123.815C97.552 126.203 97.3258 128.686 98.3199 130.432C99.3141 132.178 104.7 136.218 109.771 135.371C113.085 134.814 122.921 130.285 122.921 130.285C122.921 130.285 127.692 128.533 127.713 127.287C127.744 125.451 127.618 122.863 123.457 122.973C119.665 123.073 108.477 125.409 108.477 125.409L97.552 123.815Z" fill="#455A64"/>
<path d="M100.797 104.895C102.596 103.017 103.811 102.859 104.674 103.091C106.657 103.658 108.576 104.426 110.402 105.384C110.402 105.384 109.708 112.106 112.995 114.042V124.52C112.995 124.52 112.895 125.656 111.465 126.787C110.202 127.781 107.346 128.786 103.938 128.502C99.8875 128.165 97.552 123.815 97.552 123.815C97.552 123.815 97.4468 115.246 98.0202 111.843C98.6934 107.872 100.177 105.547 100.797 104.895Z" fill="#455A64"/>
<path d="M112.995 114.552C112.995 114.552 111.007 112.974 110.402 110.923C110.402 110.923 110.639 114.142 112.995 115.773V114.552Z" fill="#37474F"/>
<path d="M131.4 119.497C132.344 119.535 133.273 119.247 134.03 118.681C134.03 118.681 134.945 116.903 136.071 117.056C136.071 117.056 136.271 116.298 135.808 116.051C135.345 115.804 135.145 115.872 134.956 115.609C134.766 115.346 134.745 114.857 133.904 114.857C133.557 114.857 133.604 114.61 132.762 114.51C131.921 114.41 131.09 116.351 130.474 116.351L131.4 119.497Z" fill="#FFA8A7"/>
<path d="M110.402 105.384C113.29 105.831 114.337 106.689 115.389 107.662C116.441 108.635 122.879 115.094 122.879 115.094L130.674 116.214C131.084 116.546 131.384 116.993 131.537 117.498C131.852 118.413 131.568 119.412 131.269 119.649C131.269 119.649 123.536 120.112 122.016 119.823C120.496 119.533 112.969 114.536 112.969 114.536C112.25 113.994 111.646 113.313 111.194 112.533C110.743 111.753 110.452 110.891 110.339 109.997C109.85 106.825 110.402 105.384 110.402 105.384Z" fill="#455A64"/>
<path d="M103.469 133.167L91.524 147.748C91.3914 147.765 91.2579 147.774 91.1242 147.774C90.6506 147.782 90.1824 147.672 89.7619 147.454L79.6732 141.625L78.9894 141.231C78.6159 141.015 78.3056 140.132 78.3056 139.258V136.802C78.3052 134.279 78.969 131.8 80.2302 129.614C81.4915 127.429 83.3058 125.614 85.4908 124.352L97.5362 117.398L110.355 124.799L103.469 133.167Z" fill="#E84C4F"/>
<g opacity="0.1">
<path opacity="0.1" d="M103.469 133.167L91.524 147.748C91.3914 147.765 91.2579 147.774 91.1242 147.774C90.6506 147.782 90.1824 147.672 89.7619 147.454L79.6732 141.625L78.9894 141.231C78.6159 141.015 78.3056 140.132 78.3056 139.258V136.802C78.3052 134.279 78.969 131.8 80.2302 129.614C81.4915 127.429 83.3058 125.614 85.4908 124.352L97.5362 117.398L110.355 124.799L103.469 133.167Z" fill="black"/>
</g>
<path d="M99.3509 138.196L110.339 124.804L97.5204 117.403L85.4803 124.352C83.9228 125.253 82.5488 126.44 81.4301 127.849L99.3509 138.196Z" fill="#E84C4F"/>
<path d="M110.339 135.556C110.339 136.429 110.034 137.312 109.655 137.528L108.971 137.923L92.4761 147.448C92.1759 147.61 91.8472 147.712 91.5082 147.748C91.3756 147.765 91.2421 147.774 91.1085 147.775V144.203C91.1081 141.679 91.7724 139.199 93.0346 137.014C94.2969 134.828 96.1126 133.014 98.2989 131.753L99.6612 130.969L110.339 124.799V135.556Z" fill="#E84C4F"/>
<g opacity="0.2">
<path opacity="0.2" d="M110.339 135.556C110.339 136.429 110.034 137.312 109.655 137.528L108.971 137.923L92.4761 147.448C92.1759 147.61 91.8472 147.712 91.5082 147.748C91.3756 147.765 91.2421 147.774 91.1085 147.775V144.203C91.1081 141.679 91.7724 139.199 93.0346 137.014C94.2969 134.828 96.1126 133.014 98.2989 131.753L99.6612 130.969L110.339 124.799V135.556Z" fill="black"/>
</g>
<path d="M113.879 153.597L120.333 153.576L129.57 148.243L120.522 154.781L113.711 154.876L113.879 153.597Z" fill="#E0E0E0"/>
<path d="M98.2095 162.781C98.2095 162.781 109.845 158.394 110.833 157.879C111.994 157.168 113.095 156.364 114.126 155.475C114.337 155.197 114.435 154.85 114.403 154.502C114.371 154.155 114.211 153.832 113.953 153.597C113.953 153.597 109.219 153.381 108.004 153.755C107.325 153.96 96.3737 157.474 96.3737 157.474L98.2095 162.781Z" fill="#E0E0E0"/>
<path d="M97.6887 157.879C96.7261 157.053 95.7583 157.395 95.5216 158.636C95.4312 159.321 95.5036 160.018 95.733 160.669C95.9624 161.321 96.3423 161.909 96.8418 162.387C97.8044 163.213 98.7723 162.876 99.009 161.629C99.0989 160.944 99.0263 160.248 98.7969 159.596C98.5675 158.945 98.1879 158.356 97.6887 157.879Z" fill="#455A64"/>
</svg>
